<svg width="70" height="70" viewBox="0 0 70 70" fill="none" xmlns="http://www.w3.org/2000/svg">
    <rect width="70" height="70" rx="22" fill="#850EE2"/>
    <g filter="url(#filter0_d)">
        <path d="M22.655 48H15.397C15.0677 48 14.903 47.848 14.903 47.544V45.91C14.903 45.606 15.0677 45.454 15.397 45.454H17.487V31.85H15.397C15.0677 31.85 14.903 31.698 14.903 31.394V29.76C14.903 29.456 15.0677 29.304 15.397 29.304H20.185C20.489 29.304 20.641 29.456 20.641 29.76V45.454H22.655C22.9843 45.454 23.149 45.606 23.149 45.91V47.544C23.149 47.848 22.9843 48 22.655 48ZM20.489 23.68C20.9197 24.1107 21.135 24.6173 21.135 25.2C21.135 25.7827 20.9197 26.2767 20.489 26.682C20.0837 27.0873 19.5897 27.29 19.007 27.29C18.4243 27.29 17.9177 27.0873 17.487 26.682C17.0817 26.2767 16.879 25.7827 16.879 25.2C16.879 24.6173 17.0817 24.1107 17.487 23.68C17.9177 23.2493 18.4243 23.034 19.007 23.034C19.5897 23.034 20.0837 23.2493 20.489 23.68ZM47.0118 38.12V23.566H44.0858C43.7818 23.566 43.6298 23.414 43.6298 23.11V21.172C43.6298 20.868 43.7818 20.716 44.0858 20.716H53.2438C53.5478 20.716 53.6998 20.868 53.6998 21.172V23.11C53.6998 23.414 53.5478 23.566 53.2438 23.566H50.3178V37.778C50.3178 41.198 49.4185 43.8073 47.6198 45.606C45.8465 47.3793 43.3258 48.266 40.0578 48.266C36.8151 48.266 34.2945 47.3793 32.4958 45.606C30.6971 43.8073 29.7978 41.198 29.7978 37.778V23.566H26.9098C26.5805 23.566 26.4158 23.414 26.4158 23.11V21.172C26.4158 20.868 26.5805 20.716 26.9098 20.716H36.0298C36.3591 20.716 36.5238 20.868 36.5238 21.172V23.11C36.5238 23.414 36.3591 23.566 36.0298 23.566H33.1038V37.892C33.1038 42.756 35.4345 45.188 40.0958 45.188C42.4771 45.188 44.2251 44.5673 45.3398 43.326C46.4545 42.0593 47.0118 40.324 47.0118 38.12Z" fill="white"/>
    </g>
    <g filter="url(#filter1_d)">
        <path d="M56.3331 51.5982L55.6314 51.3062C55.4668 51.2376 55.3495 51.1532 55.2795 51.0529C55.213 50.944 55.1653 50.8022 55.1364 50.6275L53.8258 43.1915L53.6305 41.8296L53.6045 41.8188L50.9436 48.2116L51.9441 48.628C52.0567 48.6749 52.0914 48.7503 52.0481 48.8543L51.7723 49.5169C51.729 49.6209 51.6511 49.6494 51.5385 49.6025L48.42 48.3046C48.3074 48.2577 48.2728 48.1823 48.316 48.0783L48.5919 47.4157C48.6351 47.3117 48.7131 47.2832 48.8257 47.33L49.8132 47.7411L52.8851 40.3608L51.8976 39.9498C51.785 39.9029 51.7503 39.8275 51.7936 39.7235L52.0694 39.0609C52.1126 38.9569 52.1906 38.9284 52.3032 38.9752L54.1223 39.7324C54.3735 39.837 54.5331 40.0762 54.6011 40.45L55.8921 47.7865L56.1081 49.3551L56.1341 49.3659L58.8491 42.8432L57.8486 42.4268C57.7446 42.3835 57.7143 42.3099 57.7576 42.2059L58.0334 41.5433C58.0766 41.4393 58.1503 41.409 58.2542 41.4522L61.3856 42.7556C61.4896 42.7989 61.5199 42.8725 61.4766 42.9765L61.2008 43.6391C61.1576 43.7431 61.0839 43.7734 60.98 43.7302L59.9795 43.3137L56.5669 51.5126C56.5236 51.6165 56.4457 51.6451 56.3331 51.5982Z" fill="white"/>
        <path d="M29.7553 45.441L28.2175 45.3759C27.7535 45.3563 27.531 45.1198 27.5502 44.6666L27.7305 40.4092C27.757 39.7833 27.6264 39.2913 27.3389 38.9332C27.0513 38.575 26.6162 38.3837 26.0334 38.359C25.2025 38.3238 24.5406 38.6363 24.0477 39.2966C23.991 39.359 23.9159 39.4748 23.8222 39.6438L23.6338 44.0954L24.4917 44.1317C24.632 44.1376 24.6994 44.2054 24.6939 44.3349L24.6645 45.0309C24.659 45.1604 24.5861 45.2222 24.4458 45.2163L21.354 45.0854C21.2137 45.0794 21.1463 45.0117 21.1518 44.8822L21.1812 44.1861C21.1867 44.0566 21.2596 43.9949 21.3999 44.0008L22.2902 44.0385L22.5355 38.2433L21.6452 38.2056C21.5049 38.1997 21.4375 38.132 21.443 38.0025L21.4725 37.3064C21.4779 37.1769 21.5508 37.1151 21.6911 37.1211L23.5851 37.2013C23.7254 37.2072 23.7928 37.2749 23.7873 37.4044L23.7083 38.5038L23.7569 38.5059C24.3578 37.5907 25.2464 37.1581 26.4227 37.2079C27.286 37.2444 27.9498 37.5266 28.4139 38.0543C28.8781 38.5821 29.0973 39.2779 29.0715 40.1417L28.8947 44.3181L29.8012 44.3565C29.9415 44.3624 30.0089 44.4301 30.0035 44.5596L29.974 45.2557C29.9685 45.3852 29.8956 45.447 29.7553 45.441Z" fill="white"/>
    </g>
    <defs>
        <filter id="filter0_d" x="14.903" y="20.716" width="38.7968" height="29.55" filterUnits="userSpaceOnUse" color-interpolation-filters="sRGB">
            <feFlood flood-opacity="0" result="BackgroundImageFix"/>
            <feColorMatrix in="SourceAlpha" type="matrix" values="0 0 0 0 0 0 0 0 0 0 0 0 0 0 0 0 0 0 127 0"/>
            <feOffset dy="2"/>
            <feColorMatrix type="matrix" values="0 0 0 0 0 0 0 0 0 0 0 0 0 0 0 0 0 0 0.25 0"/>
            <feBlend mode="normal" in2="BackgroundImageFix" result="effect1_dropShadow"/>
            <feBlend mode="normal" in="SourceGraphic" in2="effect1_dropShadow" result="shape"/>
        </filter>
        <filter id="filter1_d" x="21.1515" y="37.1207" width="40.3442" height="16.4994" filterUnits="userSpaceOnUse" color-interpolation-filters="sRGB">
            <feFlood flood-opacity="0" result="BackgroundImageFix"/>
            <feColorMatrix in="SourceAlpha" type="matrix" values="0 0 0 0 0 0 0 0 0 0 0 0 0 0 0 0 0 0 127 0"/>
            <feOffset dy="2"/>
            <feColorMatrix type="matrix" values="0 0 0 0 0 0 0 0 0 0 0 0 0 0 0 0 0 0 0.25 0"/>
            <feBlend mode="normal" in2="BackgroundImageFix" result="effect1_dropShadow"/>
            <feBlend mode="normal" in="SourceGraphic" in2="effect1_dropShadow" result="shape"/>
        </filter>
    </defs>
</svg>
